****** The.American.2010.DVDRiP.XviD.R5.CUSTOM.SWESUB-Zen_Bud.avi ******

Format                           : AVI
File size                        : 1.37 GiB
Duration                         : 1h 40mn
Overall bit rate                 : 1 950 Kbps

Video

Format                           : MPEG-4 Visual
Codec ID/Hint                    : XviD
Duration                         : 1h 40mn
Bit rate                         : 1 809 Kbps
Width                            : 720 pixels
Height                           : 576 pixels
Display aspect ratio             : 16:9
Stream size                      : 1.27 GiB (93%)
Writing library                  : XviD 1.1.2 (UTC 2006-11-01)

Audio

Format                           : MPEG Audio
Codec ID/Hint                    : MP3
Duration                         : 1h 40mn
Bit rate                         : 128 Kbps
Channel(s)                       : 2 channels
Sampling rate                    : 48.0 KHz
Stream size                      : 92.1 MiB (7%)
Writing library                  : LAME3.98




******************THX to "Knutte for the Text :=) ********************